<svg xmlns="http://www.w3.org/2000/svg" width="595" height="197" viewBox="0 0 595 197.83"><path d="M50.99 56.91H7L0 122l7 10.09h46.99c7.03 0 13.04-1.57 17.17-5.53.96-.93 1.79-1.95 2.5-3.06l6.32 8.59h63.49v-21.44h-37.49v-5.92h29.49V83.29h-29.49v-4.96h55.46l-6.94 43.66 6.94 10.09h26V78.33h50.23l-29.28 33.73-18.88 9.92 2.52 10.09h40.1l-42.62 41.91 13.68 6.93 73.27-68.29-6.96 9.36 6.96 10.09h26v-26.64l7.7 13.2h18.59l7.7-13.2-6.95 16.54 6.95 10.09h53.3l4.5-12h19.45l-3.7 1.9 8.2 10.09h53.26V111.9h7.67l2.87 10.06 8.62 10.09h28.83l-13.65-23.06c2.56-1.36 4.68-3.28 6.23-5.8 2.42-3.83 3.4-8.81 3.4-14.49v-8.64c0-7.23-1.7-13.39-6.03-17.47-4.22-4.12-10.54-5.72-17.97-5.72h-45.99v64.59l-3.6-.76-25.17-63.83h-25.44l-28.81 64.59V56.91L347.48 52l-10.39 4.91-17.66 31.36-17.66-31.36L288.48 52l-8.04 4.91L266.48 52l-19.35 4.91 33.94-43.45L265.98.5 225.48 43l-8.88 7-7.12 16-1.07-9.09L192.98 52l-49 4.91-15.5-4.91-48.52 4.91-3.86 45.89c-.1-.38-.22-.76-.34-1.13-1.43-4.08-3.74-7.39-6.85-9.7.6-.63 1.16-1.3 1.69-2.02l.02-.02v-.02c2.35-3.28 3.36-7.29 3.36-11.73 0-6.47-1.71-12.05-5.88-15.89-4.13-3.86-10.12-5.39-17.12-5.39ZM74.51 122c-.26.52-.54 1.02-.85 1.5zm0 0c1.74-3.43 2.48-7.57 2.48-12.14 0-2.51-.27-4.88-.87-7.06zm167.43-11.35 34.52-41.69v41.69L257.5 108zm-192.95-5.43c.69 0 1.14.08 1.41.17.25.08.32.15.32.16 0 0 .05.04.12.23.07.2.15.58.15 1.21v1.92c0 .62-.08 1-.15 1.21-.06.18-.12.23-.12.23s-.08.08-.32.16c-.27.08-.71.17-1.41.17h-16v-5.44h16Zm-3-26.88c.69 0 1.14.08 1.41.17.24.08.32.15.32.16 0 0 .05.04.12.23.07.2.15.58.15 1.21v1.92c0 .62-.08 1-.15 1.21-.06.18-.12.23-.12.23s-.08.08-.32.16c-.27.09-.71.17-1.41.17h-13v-5.44h13Zm357.98 14.69 2.34 6.59h-4.67l2.34-6.59Zm83.48-14.69c.69 0 1.14.08 1.41.17.25.08.32.15.32.16 0 0 .05.04.12.23.07.2.15.58.15 1.21v8.64c0 .62-.08 1-.15 1.21-.06.18-.12.23-.12.23s-.08.08-.32.16c-.27.09-.71.17-1.41.17h-15.99V78.36h15.99Z" style="fill-rule:evenodd;fill:#181f26"/><path d="M521.41 132.09h26v-27.35h2.67L557 122l8.57 10.09h28.22l-21.77-38.04L594 56.9l-18.02-4.91-10.28 4.91-15.6 26.39h-2.72V56.9l-14.91-4.91-11.09 4.91-6.91 65.09 6.91 10.09Z" style="fill:#181f26"/><path d="M0 52h40q9.795 0 14.4 4.5C57.47 59.43 59 63.93 59 70c0 4-.87 7.27-2.6 9.8-1.73 2.47-3.87 4.2-6.4 5.2 5.4 1.47 9.07 5.07 11 10.8.67 2.07 1 4.47 1 7.2 0 6.53-1.53 11.33-4.6 14.4S49.53 122 43 122H0zm44 48q0-6-6-6H18v14h20q6 0 6-6zm-3-28q0-6-6-6H18v14h17q6 0 6-6zm87.5 50H73V52h55.5v14H91v13.5h29.5v14H91V108h37.5zm43.97 0h-18V66h-21V52h60v14h-21zm157.05-39-14 25h-14l-14-25v39h-18V52h19l20 37 20-37h19v70h-18zm46.54 39h-19.5l26.5-70h20l26.5 70h-19.5l-4.5-12.5h-25zm9-25.5h16l-8-23.5zM438.55 52h42c7 0 12.07 1.6 15.2 4.8 3.2 3.13 4.8 8.2 4.8 15.2v9c0 5.53-.93 9.83-2.8 12.9-1.8 3.07-4.7 5.1-8.7 6.1l12.5 22h-19.5l-11.5-21h-14v21h-18zm44 20q0-6-6-6h-20v21h20q6 0 6-6zm49.98 50h-18V52h18v27.5h9l15.6-27.5h19l-19.6 34.5 19.5 35.5h-19l-15.5-28.5h-9zm-304.57 2h12.98l-51.44 50zm1.54-74h-12.89L267 0zm37.5 2-44.52 56h35L243 122h-53.5l10.98-14 35-42h-35l14.02-14z" style="fill:#ffe500"/><path d="M271.35 158.26c0-11.45 8.77-19.57 20.7-19.57 6.94 0 12.53 2.53 16.19 7.1l-6.78 6.13c-2.37-2.85-5.27-4.41-8.87-4.41-6.18 0-10.49 4.3-10.49 10.75s4.3 10.75 10.49 10.75c3.6 0 6.51-1.56 8.87-4.41l6.78 6.13c-3.66 4.57-9.25 7.1-16.19 7.1-11.94 0-20.7-8.12-20.7-19.57m66.19 11.51h-15.92l-2.96 7.31H307.8l16.62-37.64h10.49l16.67 37.64H340.5zm-3.12-7.85-4.84-12.04-4.84 12.04zm17.52 11.77 3.5-7.85c3.33 2.21 8.07 3.71 12.42 3.71s6.13-1.24 6.13-3.06c0-5.97-21.4-1.61-21.4-15.59 0-6.72 5.48-12.21 16.67-12.21 4.89 0 9.95 1.13 13.66 3.28l-3.28 7.9c-3.6-1.94-7.15-2.9-10.43-2.9-4.46 0-6.08 1.51-6.08 3.39 0 5.75 21.35 1.45 21.35 15.33 0 6.56-5.48 12.15-16.67 12.15-6.18 0-12.31-1.67-15.86-4.14Zm37.42-34.25h10.65v37.64h-10.65zm54.04 0v37.64h-8.76l-16.62-20.06v20.06h-10.43v-37.64h8.77l16.62 20.06v-20.06h10.43Zm5.59 18.82c0-11.29 8.87-19.57 20.92-19.57s20.92 8.28 20.92 19.57-8.87 19.57-20.92 19.57-20.92-8.28-20.92-19.57m31.08 0c0-6.51-4.46-10.75-10.16-10.75s-10.16 4.25-10.16 10.75 4.46 10.75 10.16 10.75 10.16-4.25 10.16-10.75" style="fill:#fff"/></svg>