<svg width="246" height="40" viewBox="0 0 246 40" fill="none" xmlns="http://www.w3.org/2000/svg">
<path d="M148.948 13.3727C139.33 13.3727 139.33 16.3577 139.33 20.0402C139.33 23.7227 139.33 26.7077 148.948 26.7077C158.565 26.7077 158.565 23.7227 158.565 20.0402C158.565 16.3577 158.565 13.3727 148.948 13.3727ZM148.948 22.9252C145.1 22.9252 145.1 21.6327 145.1 20.0402C145.1 18.4477 145.1 17.1552 148.948 17.1552C152.795 17.1552 152.795 18.4477 152.795 20.0402C152.795 21.6327 152.795 22.9252 148.948 22.9252Z" fill="white"/>
<path d="M66.3299 21.0027H72.1299C72.1299 24.4352 71.2849 26.7077 62.5199 26.7077C52.9023 26.7077 52.9023 23.7227 52.9023 20.0402C52.9023 16.3577 52.9023 13.3727 62.5199 13.3727C71.2849 13.3727 72.1299 15.7102 72.1299 19.0777H66.3299C66.3299 17.8577 65.5524 17.1552 62.5199 17.1552C58.6724 17.1552 58.6724 18.4477 58.6724 20.0402C58.6724 21.6327 58.6724 22.9252 62.5199 22.9252C65.5524 22.9252 66.3299 22.2177 66.3299 21.0027Z" fill="white"/>
<path d="M85.3945 26.3226H91.422L86.522 13.5H77.0895L72.1895 26.3226H78.217L78.892 24.5601H84.7245L85.3995 26.3226H85.3945ZM80.2345 21.0325L81.802 16.6725L83.3695 21.0325H80.232H80.2345Z" fill="white"/>
<path d="M91.4199 22.2225V22.0575H97.5374C97.5374 22.6475 97.695 22.9075 101.037 22.9075C104.127 22.9075 104.245 22.5975 104.25 22.11C104.257 21.435 102.492 21.3975 100.802 21.325L97.7025 21.2075C92.6074 21.02 91.6299 20.5275 91.6299 17.4075V17.2425C91.6299 15.035 94.0849 13.3675 101.037 13.3675C108.385 13.3675 110.288 15.5375 110.288 17.58V17.7675L104.08 17.72C104.08 17.235 104.052 16.9575 101.037 16.9575C97.7225 16.9575 97.6975 17.135 97.6975 17.57C97.6975 18.0975 98.725 18.1675 101.015 18.2475L104.115 18.365C109.655 18.5525 110.655 19.6825 110.655 22.1925V22.38C110.655 24.6575 108.933 26.7 101.037 26.7C92.3574 26.7 91.4199 23.8825 91.4199 22.215V22.2225Z" fill="white"/>
<path d="M132.263 13.5V20.2675L126.173 13.5H124.571H119.121H118.801V26.3226H124.571V19.555L130.661 26.3226H132.263H137.713H138.033V13.5H132.263Z" fill="white"/>
<path d="M178.841 13.5H176.853H173.968L171.243 20.5825L168.518 13.5H165.633H163.646H159.863V26.3226H165.633V17.9175L169.416 26.3226H173.071L176.853 17.9175V26.3226H182.623V13.5H178.841Z" fill="white"/>
<path d="M117.336 13.5001H111.566V26.3227H117.336V13.5001Z" fill="white"/>
<path d="M114.483 12.3725C116.236 12.3725 117.656 11.5125 117.656 10.45C117.656 9.38753 116.236 8.52753 114.483 8.52753C112.731 8.52753 111.311 9.38753 111.311 10.45C111.311 11.5125 112.731 12.3725 114.483 12.3725Z" fill="white"/>
<path d="M219.549 13.4974V19.9074C219.549 21.4999 219.549 22.7924 215.702 22.7924C211.854 22.7924 211.854 21.4999 211.854 19.9074V13.4974H206.084V19.9074C206.084 23.5899 206.084 26.5749 215.702 26.5749C225.319 26.5749 225.319 23.5899 225.319 19.9074V13.4974H219.549Z" fill="#E4672D"/>
<path d="M199.041 13.4974V19.2674H191.346V13.4974H185.576V26.3199H191.346V22.7949H199.041V26.3199H204.811V13.4974H199.041Z" fill="#E4672D"/>
<path d="M226.639 13.4974H240.281C245.126 13.4974 245.156 14.9499 245.156 16.3849V16.4874C245.156 17.94 244.796 18.4225 242.599 19.045C245.584 19.6425 245.919 20.1675 245.919 22.45V22.5875C245.919 24.61 245.919 26.355 240.284 26.355H226.641V13.4949L226.639 13.4974ZM232.409 16.8325V18.0775H238.254C239.411 18.0775 239.411 17.9225 239.411 17.455V17.42C239.411 16.935 239.411 16.8325 238.254 16.8325H232.409ZM232.409 21.31V22.9H238.514C239.896 22.9 239.896 22.5725 239.896 22.0875V22.0525C239.896 21.5675 239.896 21.31 238.514 21.31H232.409Z" fill="#E4672D"/>
<path d="M20.6976 6.89767C29.1051 6.89767 34.5252 7.93268 37.2652 10.0627C38.3577 10.9102 39.0627 11.9377 39.4827 13.2977C39.7977 14.3177 39.9252 15.4677 39.9727 16.5327H30.1301C29.2826 12.8877 24.9476 12.3552 20.6976 12.3552C11.7501 12.3552 11.0401 15.6702 11.0401 20.0002C11.0401 24.3303 11.7501 27.6453 20.6976 27.6453C24.9476 27.6453 29.2826 27.1128 30.1301 23.4678H39.9752C39.8527 26.3928 39.2552 28.4578 37.2702 29.9878C34.5502 32.0853 29.1276 33.1028 20.6976 33.1028C11.7176 33.1028 6.11503 31.8503 3.57002 29.2703C1.38001 27.0528 1.38001 23.7828 1.38001 19.9977C1.38001 16.2127 1.38001 12.9427 3.57002 10.7252C6.11503 8.14768 11.7176 6.89267 20.6976 6.89267M20.6976 5.51266C0 5.51766 0 12.0027 0 20.0002C0 27.9978 0 34.4828 20.6976 34.4828C39.5602 34.4828 41.3802 29.5428 41.3802 22.0877H28.8976C28.8976 24.7303 27.2251 26.2653 20.6976 26.2653C12.4176 26.2653 12.4176 23.4603 12.4176 19.9977C12.4176 16.5352 12.4176 13.7302 20.6976 13.7302C27.2251 13.7302 28.8976 15.2552 28.8976 17.9077H41.3802C41.3802 10.5927 39.5602 5.51266 20.6976 5.51266Z" fill="#E4672D"/>
<path d="M27.887 24.7051C26.9345 25.5751 25.1969 26.1026 22.2444 26.2351C21.7619 26.2576 21.2469 26.2676 20.6969 26.2676C19.1269 26.2676 17.8569 26.1676 16.8244 25.9801C16.3694 25.2551 15.9594 24.4951 15.5894 23.7101C15.4019 23.3151 15.2244 22.9126 15.0594 22.5051C15.0344 22.4476 15.0119 22.3876 14.9894 22.3301C14.8744 22.0426 14.7644 21.75 14.6569 21.4575C11.1419 11.7175 13.0194 -0.335059 16.4944 0.00744248C20.1819 0.369944 19.1719 6.78998 22.4319 15.2175C22.5169 15.44 22.6069 15.6625 22.6969 15.885C22.8694 16.305 23.0519 16.73 23.2469 17.16C23.5769 17.8875 23.9419 18.6275 24.3469 19.3775C25.4094 21.345 26.627 23.1126 27.882 24.7051H27.887Z" fill="url(#paint0_radial_1101_20920)"/>
<path d="M37.1501 37.05C37.0551 37.175 36.9351 37.2975 36.7901 37.415C34.6326 39.17 29.5951 38.0975 24.5801 34.405C26.3276 34.33 27.8951 34.2 29.3026 34.02C29.7101 33.9675 30.1026 33.91 30.4826 33.85C31.9951 33.6075 33.3001 33.3 34.4276 32.93C34.7051 32.84 34.9701 32.745 35.2251 32.6475C37.0151 34.56 37.9676 35.965 37.1476 37.05H37.1501Z" fill="url(#paint1_radial_1101_20920)"/>
<path d="M23.4604 14.1776C23.4404 14.1926 23.4204 14.2076 23.4004 14.2226" stroke="#FF00FF" stroke-width="0.0700003" stroke-miterlimit="10"/>
<path d="M17.3178 21.595C18.3153 22.1625 14.9678 21.4175 14.7828 23.125C14.1103 29.3751 20.2253 35.1351 19.0078 38.1526C17.1853 40.4801 4.43024 27.7825 9.36276 23.6025C11.7128 21.61 16.1828 20.9475 17.3178 21.595Z" fill="url(#paint2_radial_1101_20920)"/>
<path d="M21.3107 25.1277C21.6257 25.5102 21.9357 25.8777 22.2432 26.2352C21.7607 26.2577 21.2457 26.2677 20.6956 26.2677C19.1256 26.2677 17.8556 26.1677 16.8231 25.9802C16.6031 25.9402 16.3931 25.8952 16.1956 25.8477C15.9106 25.5377 15.6406 25.3527 15.3906 25.3752C15.4131 24.7552 15.4731 24.1927 15.5881 23.7102C15.6231 23.5652 15.6606 23.4277 15.7056 23.2977C16.5081 20.9652 20.6131 24.3277 21.2707 25.0802C21.2732 25.0852 21.2782 25.0902 21.2807 25.0927C21.2882 25.1027 21.2957 25.1102 21.3007 25.1177C21.3007 25.1177 21.3057 25.1227 21.3082 25.1277H21.3107Z" fill="url(#paint3_radial_1101_20920)"/>
<path d="M40.7202 38.7251C38.1852 41.3226 30.4852 39.9776 23.5977 34.4426C23.9327 34.4326 24.2602 34.4201 24.5802 34.4051C26.3277 34.3301 27.8952 34.2001 29.3027 34.0201C29.7102 33.9676 30.1027 33.9101 30.4827 33.8501C33.3877 35.8476 35.6877 36.6926 37.1477 37.0501C38.2977 37.3301 38.9302 37.3101 38.9302 37.3101L39.2202 38.6026L40.7202 38.7276V38.7251Z" fill="url(#paint4_radial_1101_20920)"/>
<path d="M15.7073 23.2975C15.5148 23.8601 15.4223 24.5701 15.3923 25.3751C15.2273 29.9901 20.7948 35.7751 19.0073 38.1526C20.2248 35.1351 14.1098 29.3751 14.7823 23.125C14.9673 21.415 16.2898 21.095 17.3173 21.595C18.1298 21.99 19.1198 22.7675 20.0948 23.76C20.0998 23.765 20.1048 23.77 20.1098 23.775C20.4923 24.1701 20.8798 24.6051 21.2723 25.0801C20.6173 24.3276 16.5098 20.965 15.7073 23.2975Z" fill="url(#paint5_radial_1101_20920)"/>
<path d="M37.0285 30.0803C37.016 30.0928 37.001 30.1078 36.986 30.1203C36.9835 30.1228 36.981 30.1253 36.976 30.1278C36.9635 30.1403 36.9485 30.1528 36.9335 30.1653C36.9335 30.1653 36.9285 30.1678 36.9285 30.1703C36.916 30.1803 36.901 30.1928 36.8885 30.2028C36.876 30.2128 36.861 30.2228 36.8485 30.2328C34.696 31.8153 29.021 24.6352 26.346 15.9627C26.0384 14.9652 25.0584 13.0077 23.4609 14.1752C25.6759 12.5077 28.2735 11.8102 30.9285 13.8052C32.201 14.7627 33.066 16.2652 33.361 17.9602C34.6735 25.5027 38.9485 28.1627 37.026 30.0778L37.0285 30.0803Z" fill="url(#paint6_radial_1101_20920)"/>
<path d="M41.3411 37.43L40.7211 38.725L39.2236 38.6L38.9336 37.3075L40.8686 36.4125L41.3411 37.43Z" fill="url(#paint7_linear_1101_20920)"/>
<path d="M36.8493 30.2327C34.6768 31.8477 28.4768 24.9902 25.8018 16.3151C25.7968 16.2976 25.7993 16.2776 25.7893 16.2651C23.0392 12.8026 21.4717 24.0127 21.3092 25.1252C21.3092 25.1227 21.3042 25.1202 21.3017 25.1177C21.3017 25.1177 19.6792 17.0726 23.3767 14.2376C23.3842 14.2326 23.3917 14.2276 23.3967 14.2226C23.4167 14.2076 23.4367 14.1926 23.4567 14.1776C25.0543 13.0101 26.0343 14.9676 26.3418 15.9651C29.0143 24.6377 34.6893 31.8177 36.8443 30.2352L36.8493 30.2327Z" fill="url(#paint8_radial_1101_20920)"/>
<path d="M27.5193 23.7375C27.7318 23.97 27.9443 24.2 28.1568 24.425C28.0743 24.5225 27.9868 24.615 27.8868 24.705C26.9343 25.575 25.1968 26.1025 22.2443 26.235C21.9368 25.8775 21.6243 25.51 21.3118 25.1275C20.8943 22.2225 21.5518 17.9575 22.7018 15.885C23.5443 14.37 24.6493 14.03 25.7918 16.2675C25.0268 17.93 25.1493 21.16 27.5218 23.7375H27.5193Z" fill="url(#paint9_radial_1101_20920)"/>
<path d="M40.8669 36.4126L38.9319 37.3101C38.9319 37.3101 38.2994 37.3326 37.1494 37.0501C35.6869 36.6926 33.3869 35.8476 30.4844 33.8501C31.9969 33.6076 33.3019 33.3001 34.4294 32.9301C34.7069 32.84 34.9719 32.745 35.2269 32.6475C35.6669 32.4775 36.0744 32.3 36.4544 32.11C38.7519 34.0401 40.3919 35.3926 40.8694 36.4151L40.8669 36.4126Z" fill="url(#paint10_radial_1101_20920)"/>
<defs>
<radialGradient id="paint0_radial_1101_20920" cx="0" cy="0" r="1" gradientUnits="userSpaceOnUse" gradientTransform="translate(14.8646 2.77596) rotate(75.0076) scale(22.7485 6.36957)">
<stop stop-color="#F5E593"/>
<stop offset="0.71" stop-color="#E5C16E"/>
<stop offset="1" stop-color="#D2A647"/>
</radialGradient>
<radialGradient id="paint1_radial_1101_20920" cx="0" cy="0" r="1" gradientUnits="userSpaceOnUse" gradientTransform="translate(26.4129 33.2155) rotate(68.71) scale(5.76753 1.61491)">
<stop stop-color="#F5E593"/>
<stop offset="0.71" stop-color="#E5C16E"/>
<stop offset="1" stop-color="#D2A647"/>
</radialGradient>
<radialGradient id="paint2_radial_1101_20920" cx="0" cy="0" r="1" gradientUnits="userSpaceOnUse" gradientTransform="translate(14.0731 29.5491) rotate(2.69) scale(8.97124 10.0801)">
<stop stop-color="#F5E593"/>
<stop offset="0.36" stop-color="#E5C16E"/>
<stop offset="0.68" stop-color="#D2A647"/>
</radialGradient>
<radialGradient id="paint3_radial_1101_20920" cx="0" cy="0" r="1" gradientUnits="userSpaceOnUse" gradientTransform="translate(19.7603 27.0198) rotate(32.32) scale(5.75003 4.08252)">
<stop offset="0.09" stop-color="#EFBB16"/>
<stop offset="0.36" stop-color="#EFB816"/>
<stop offset="0.56" stop-color="#EDAF15"/>
<stop offset="0.73" stop-color="#EB9F14"/>
<stop offset="0.89" stop-color="#E98913"/>
<stop offset="1" stop-color="#E67411"/>
</radialGradient>
<radialGradient id="paint4_radial_1101_20920" cx="0" cy="0" r="1" gradientUnits="userSpaceOnUse" gradientTransform="translate(33.6482 37.8755) rotate(18.67) scale(9.15254 3.29492)">
<stop offset="0.09" stop-color="#EFBB16"/>
<stop offset="0.36" stop-color="#EFB816"/>
<stop offset="0.56" stop-color="#EDAF15"/>
<stop offset="0.73" stop-color="#EB9F14"/>
<stop offset="0.89" stop-color="#E98913"/>
<stop offset="1" stop-color="#E67411"/>
</radialGradient>
<radialGradient id="paint5_radial_1101_20920" cx="0" cy="0" r="1" gradientUnits="userSpaceOnUse" gradientTransform="translate(17.0133 30.0948) rotate(-79.19) scale(9.08004 5.17562)">
<stop stop-color="#EFB917"/>
<stop offset="1" stop-color="#FFDD55"/>
</radialGradient>
<radialGradient id="paint6_radial_1101_20920" cx="0" cy="0" r="1" gradientUnits="userSpaceOnUse" gradientTransform="translate(26.9011 24.42) rotate(-31.97) scale(7.80624 9.9275)">
<stop stop-color="#F5E593"/>
<stop offset="0.71" stop-color="#E5C16E"/>
<stop offset="1" stop-color="#D2A647"/>
</radialGradient>
<linearGradient id="paint7_linear_1101_20920" x1="39.5857" y1="37.1464" x2="41.0009" y2="38.2508" gradientUnits="userSpaceOnUse">
<stop stop-color="#6D4C41"/>
<stop offset="1" stop-color="#58422E"/>
</linearGradient>
<radialGradient id="paint8_radial_1101_20920" cx="0" cy="0" r="1" gradientUnits="userSpaceOnUse" gradientTransform="translate(28.1659 24.6246) rotate(64.33) scale(12.9884 8.16794)">
<stop offset="0.42" stop-color="#EFB917"/>
<stop offset="1" stop-color="#EFDD55"/>
</radialGradient>
<radialGradient id="paint9_radial_1101_20920" cx="0" cy="0" r="1" gradientUnits="userSpaceOnUse" gradientTransform="translate(24.0041 21.8527) rotate(-150.87) scale(9.65004 4.82502)">
<stop stop-color="#EFE059"/>
<stop offset="0.54" stop-color="#EAAF32"/>
<stop offset="0.84" stop-color="#E68511"/>
</radialGradient>
<radialGradient id="paint10_radial_1101_20920" cx="0" cy="0" r="1" gradientUnits="userSpaceOnUse" gradientTransform="translate(37.4725 35.3005) rotate(-141.49) scale(5.15002 6.48903)">
<stop stop-color="#EFE059"/>
<stop offset="0.75" stop-color="#EAAF32"/>
<stop offset="1" stop-color="#E68511"/>
</radialGradient>
</defs>
</svg>
