<?xml version="1.0" encoding="UTF-8"?><svg id="Layer_2" xmlns="http://www.w3.org/2000/svg" width="1482.369" height="177.678" xmlns:xlink="http://www.w3.org/1999/xlink" viewBox="0 0 1482.369 177.678"><defs><style>.cls-1{fill:url(#linear-gradient-2);}.cls-2{fill:url(#linear-gradient-4);}.cls-3{fill:url(#linear-gradient-5);}.cls-4{fill:#333;}.cls-5{fill:url(#linear-gradient-6);}.cls-6{fill:#ed1c24;}.cls-7{fill:url(#linear-gradient);}.cls-8{fill:url(#linear-gradient-3);filter:url(#drop-shadow-1);}</style><linearGradient id="linear-gradient" x1="207.362" y1="33.553" x2="27.169" y2="162.16" gradientUnits="userSpaceOnUse"><stop offset="0" stop-color="#df1a21"/><stop offset=".999" stop-color="#ca181f"/></linearGradient><linearGradient id="linear-gradient-2" x1="197.619" y1="33.188" x2="7.037" y2="169.21" gradientUnits="userSpaceOnUse"><stop offset=".409" stop-color="#df1a21"/><stop offset=".999" stop-color="#fe9f49"/></linearGradient><linearGradient id="linear-gradient-3" x1="127.12" y1="167.36" x2="159.198" y2="25.038" gradientUnits="userSpaceOnUse"><stop offset="0" stop-color="#c1c1c1"/><stop offset="1" stop-color="#fefefe"/></linearGradient><filter id="drop-shadow-1" x="70.285" y="19.218" width="177" height="138" filterUnits="userSpaceOnUse"><feOffset dx="7" dy="7"/><feGaussianBlur result="blur" stdDeviation="5"/><feFlood flood-color="#000" flood-opacity=".3"/><feComposite in2="blur" operator="in"/><feComposite in="SourceGraphic"/></filter><linearGradient id="linear-gradient-4" x1="74.688" y1="58.26" x2="34.57" y2="86.893" gradientUnits="userSpaceOnUse"><stop offset=".409" stop-color="#e93726"/><stop offset=".999" stop-color="#ee5c32"/></linearGradient><linearGradient id="linear-gradient-5" x1="160.943" y1="128.478" x2="120.911" y2="157.05" gradientUnits="userSpaceOnUse"><stop offset=".41" stop-color="#e4131a"/><stop offset=".999" stop-color="#e61f20"/></linearGradient><linearGradient id="linear-gradient-6" x1="870.705" y1="237.789" x2="870.705" y2="87.122" gradientUnits="userSpaceOnUse"><stop offset="0" stop-color="#000" stop-opacity=".5"/><stop offset="1" stop-color="#000" stop-opacity="0"/></linearGradient></defs><g id="Layer_1-2"><path class="cls-7" d="M92.959,150.986c2.681-6.658,5.271-13.06,7.853-19.47-.217-.261-.434-.514-.651-.775-29.306,9.853-58.603,19.699-87.909,29.552-.161-.242-.313-.484-.474-.727,23.883-22.154,47.767-44.3,72.165-66.928-9.414-1.682-18.355-1.435-27.34-3.059,1.071-1.321,2.441-1.849,3.641-2.563,19.693-11.828,39.417-23.615,59.102-35.451,3.559-2.136,3.969-1.453,2.749-6.322-.46-1.831-.757-3.704-1.25-5.529-.515-1.882.042-2.973,1.857-3.832,5.007-2.369,9.923-4.92,14.877-7.396,10.39-5.201,20.727-10.493,31.177-15.578,17.565-8.536,34.247-6.918,49.936,4.719,3.366,2.496,6.673,5.071,10.005,7.607.969.739,1.891,1.419,2.044,2.831.921,8.173,2.96,16.229,2.281,24.555-1.119,13.85-7.122,25.165-18.2,33.458-12.764,9.556-25.845,18.7-38.787,28.029-1.533,1.107-3.066,2.221-4.615,3.303q-2.552,1.78-5.081-.349c-1.861-1.572-3.722-3.137-5.532-4.764-.932-.835-1.811-1.001-2.881-.29-1.128.742-2.309,1.408-3.46,2.108-19.143,11.697-38.278,23.394-57.436,35.073-1.109.669-2.084,1.653-4.072,1.79v.008Z"/><path class="cls-1" d="M204.726,43.145c-.115.051-.223.102-.337.153-1.477-1.7-15.064-14.732-16.284-12.75-.552.897.684,2.774-.056,3.471-.215.202-.535.217-.854.199-1.688-1.322-3.379-2.726-5.067-4.23-4.014-3.575-8.467-7.894-11.651-7.873-1.136.008-1.996.592-3.095.683-1.69.139-3.842-.887-5.912-1.788-8.708-3.791-16.886-5.556-24.103-5.202-.573.028-1.172.097-1.344.74-.119.444-.015,1.102.11,1.749.77,3.979,2.355,8.4,4.515,12.697-.548-.012-1.087.078-1.431.461-1.419,1.576.577,4.931-.708,6.589-1.099,1.417-4.813,1.153-6.554,1.817-5.416,2.064-9.97,6.516-13.653,11.032-5.101,6.256-7.672,12.359-12.988,17.029-2.974-2.51-5.949-4.903-8.914-7.146-1.949-1.474-4.042-2.943-5.487-2.709-1.615.262-1.973,2.553-2.415,4.535-1.175,5.267-3.627,9.168-7.123,11.331-1.191.737-2.556,1.366-2.771,3.349-.184,1.696.512,4.082,1.131,6.334.356,1.299.68,2.584.993,3.864-4.745,3.267-9.886,6.306-13.333,11.129-5.175,7.241-7.239,17.118-11.757,24.968-.22.381-.47.759-.724,1.137-.451.216-.826.547-.94,1.207-.004.025.003.059,0,.084-5.173,6.634-15.247,12.705-24.695,19.177-.649-.252-1.296-.498-1.954-.786-2.099-.918-4.314-2.027-5.97-1.767-3.097.487-3.242,5.359-2.704,10.545-5.926,5.11-10.315,10.643-10.932,16.99,7.917-8.442,19.278-12.028,29.606-14.827,1.727.8,3.466,1.586,4.984,1.75,3.987.43,5.802-3.416,9.04-4.578,3.782-1.357,9.878.54,10.441-5.107.086-.864.023-1.851-.119-2.902,3.874-4.171,7.536-9.272,12.636-11.276,5.216-2.05,12.708-.954,18.564-1.722.332,2.06.664,4.121.995,6.181,4.061-2.754,8.121-5.507,12.182-8.261,2.121-1.438,4.312-2.903,6.963-3.195,2.758-.304,6.151.575,7.932-1.475.973-1.12,1.202-2.873,1.559-4.48.504-.382.758-1.166.954-1.971.178-.729.347-1.486.528-2.231.981-2.03,2.307-3.941,3.882-5.572,2.482-.245,6.195,1.96,7.666-.001.665-.886.737-2.514,1.273-3.572.438-.865,1.158-1.291,2.019-1.478.344.009.687.013,1.033.054,4.452.526,8.813,2.926,13.194,5.444-2.158,2.249-4.703,4.325-5.922,4.238,3.563.253,6.755-.589,9.284-2.318,2.354,1.318,4.72,2.544,7.119,3.404,20.071,7.198,33.731-12.111,41.935-30.011,3.12-6.808,6.195-13.925,6.326-22.268.112-7.091-2.232-14.566-7.224-20.476.05-.125.11-.242.159-.368ZM169.183,28.899c1.746-.214,2.634-2.084,4.517-1.994,2.507.119,5.565,3.333,8.712,6.826-5.475-.682-11.279-1.898-16.539-4.333-1.343-.622-2.69-1.29-4.04-1.89.191-.05.389-.085.6-.097,2.009-.114,4.8,1.728,6.751,1.488ZM148.812,27.083c.64.072,1.319.244,2.011.446-.377.404-.706.863-.935,1.42-.261.635-.411,1.356-.773,1.909-.828,1.263-2.309,1.265-3.952.968-.426-3.101,1.328-5.004,3.649-4.743ZM93.612,68.623c.168-.885.163-2.011.715-2.395.379-.264.972-.131,1.567.077,1.994.699,4.064,2.139,6.152,4.047-.402.253-.807.504-1.239.744-2.931,1.627-5.975,3.283-9.549,3.235-1.2-.016-2.452-.225-3.576.026-.316.071-.609.192-.889.337,1.717-2.837,6.061-2.077,6.817-6.071ZM20.838,150.374c.191-.655.394-1.326.867-1.59.52-.29,1.294-.052,2.092.289-1.145.85-2.257,1.711-3.333,2.582.125-.427.25-.854.374-1.282ZM14.947,136.391c-4.075,2.351-14.947,21.29-14.947,21.29,0,0,.305-9.45,3.814-12.557,3.509-3.106,5.312-7.072,9.475-11.17,4.163-4.098,3.098-8.347,7.521-8.184,4.423.163,13.964,5.515,13.964,5.515,0,0-15.752,2.755-19.827,5.106ZM148.519,123.033c-1.159,2.501-8.268,13.217-8.268,13.217,0,0-6.164-3.48-4.383-3.994,2.47-.713,2.943-1.468,4.848-2.104,1.905-.636,8.963-9.618,7.804-7.118ZM84.373,142.362s2.365,3.291.627,5.854c-1.738,2.562-4.838,1.667-5.082,1.394-.244-.273,1.446-3.533,4.455-7.247ZM101.861,40.643c-.786.862-3.493,4.714-3.493,4.714,0,0-.5-7.087,1.942-8.005,2.442-.918,20.577-3.2,21.958-3.247,1.38-.046,2.333-19.3,3.352-21.006,1.019-1.706,9.355,1.774,8.41,2.224-.945.45-5.362.598-6.339,3.138-.976,2.54,1.097,18.766-.751,20.5-1.847,1.734-14.95-.332-16.331-.286-1.38.047-7.963,1.104-8.749,1.966Z"/><path class="cls-8" d="M211.999,61.938s-.001,0-.002-.001c-2.976,4.456-6.646,8.977-11.168,13.248-12.304,11.622-36.137,22.357-58.919,29.142-.076.102-.157.21-.24.321-.375.501-.815,1.089-1.306,1.744,0,0-.001.002-.002.003-.273.365-.56.747-.861,1.15-.074.098-.149.199-.224.299-.362.483-.74.987-1.131,1.508-.074.098-.146.194-.22.293h0c-3.714,4.947-8.419,11.187-10.346,13.626-2.329,2.947-7.552,5.701-13.083,8.343h0s-.006.003-.009.004c-.622.297-1.248.592-1.873.887-.042.02-.083.039-.125.059-.617.29-1.234.578-1.847.866-.593.278-1.182.555-1.766.831-.056.026-.111.053-.167.079-.603.285-1.199.57-1.784.853-.086-.317-.068-.701.034-1.137.433-1.853,2.373-4.635,4.2-7.074.322-.43.641-.85.947-1.252.204-.268.403-.528.593-.779.572-.751,1.07-1.413,1.423-1.93,1.677-2.454,3.008-11.039,3.28-12.892-.3.05-.6.1-.898.148-.155.025-.308.049-.462.074-.537.085-1.071.167-1.599.245-.089.013-.181.028-.27.041,0,0,0,0-.001,0h-.001c-.396-.252-.772-.515-1.14-.782-.09-.065-.177-.132-.265-.198-.29-.218-.572-.44-.845-.666-.074-.061-.149-.121-.221-.183-.685-.583-1.315-1.19-1.896-1.815-.041-.044-.081-.089-.121-.133-.268-.293-.526-.589-.773-.889-.019-.023-.038-.046-.057-.069-.48-.586-.925-1.181-1.329-1.78-2.276,1.052-4.358,1.886-6.182,2.442-.035.011-.068.02-.103.031-.289.087-.571.167-.847.239-.073.019-.145.039-.217.057-.307.078-.608.149-.897.208,0,0,0,0,0,0h0c1.69-1.51,4.056-3.29,6.886-5.241-2.784-5.226-3.097-10.061-3.097-10.061.635-.65,1.283-1.316,1.936-1.988-.217-.078-.466-.167-.751-.266-.245-.086-.513-.179-.8-.277-.143-.049-.291-.099-.443-.151-2.586-.872-6.368-2.04-8.871-2.334-.294-.035-.571-.057-.826-.066-.255-.009-.488-.003-.696.018-3.32.342-12.233,2.34-14.131.526.527-.378,1.06-.766,1.597-1.159.054-.039.107-.079.161-.118.515-.378,1.034-.76,1.556-1.145.562-.415,1.128-.833,1.694-1.25.016-.012.032-.024.049-.036.565-.416,1.131-.831,1.696-1.242,0,0,0,0,0,0h0c4.959-3.604,9.869-6.883,13.57-7.526,4.798-.834,21.039-3.213,24.608-3.735,11.241-11.058,23.833-22.33,37.023-30.522,1.57,6.219,8.153,27.444,27.966,43.924.389-.24.767-.482,1.147-.724-20.256-16.673-26.627-38.406-27.964-43.909.429-.26.86-.512,1.29-.766,1.472,5.927,7.949,27.32,27.87,43.909.189-.123.374-.247.561-.371-20.125-16.678-26.494-38.303-27.853-43.878,1.825-1.059,3.66-2.064,5.504-2.988.418-.21.836-.413,1.253-.613.137-.066.275-.129.412-.193.281-.132.561-.263.842-.391.161-.073.321-.144.482-.216.258-.115.516-.229.773-.34.168-.072.335-.144.503-.214.251-.106.502-.211.753-.314.168-.069.337-.138.505-.205.078-.031.157-.062.235-.093-1.295.514-2.596,1.074-3.901,1.683.14.523.273,1.049.423,1.568-1.79.516-3.58,1.032-5.369,1.548.6,2.083,1.272,4.139,2.012,6.167,1.75-.639,3.5-1.277,5.249-1.916.696,1.907,1.457,3.786,2.28,5.634-1.702.758-3.403,1.516-5.105,2.274.876,1.966,1.818,3.899,2.825,5.797,1.645-.873,3.291-1.746,4.936-2.62.947,1.785,1.955,3.536,3.022,5.25-1.581.984-3.163,1.968-4.744,2.953,1.135,1.823,2.332,3.607,3.59,5.349,1.51-1.091,3.02-2.181,4.53-3.272,1.183,1.638,2.423,3.236,3.718,4.791-1.431,1.192-2.863,2.384-4.294,3.576,1.377,1.654,2.813,3.262,4.305,4.822,1.346-1.288,2.692-2.576,4.037-3.863,1.403,1.466,2.86,2.887,4.367,4.258-1.253,1.378-2.507,2.756-3.76,4.134.059.053.12.104.179.157,1.622-1.128,3.144-2.272,4.566-3.426-.327-.289-.662-.571-.985-.865,1.253-1.378,2.507-2.756,3.76-4.134-1.412-1.284-2.776-2.615-4.09-3.988-1.346,1.288-2.692,2.576-4.037,3.863-1.403-1.466-2.753-2.979-4.048-4.534,1.431-1.192,2.863-2.384,4.294-3.576-1.213-1.457-2.374-2.953-3.482-4.487-1.51,1.091-3.02,2.181-4.53,3.272-1.183-1.638-2.309-3.316-3.376-5.03,1.581-.984,3.163-1.968,4.744-2.953-.999-1.606-1.943-3.245-2.83-4.917-1.645.873-3.291,1.746-4.936,2.62-.947-1.785-1.833-3.603-2.657-5.451,1.702-.758,3.403-1.516,5.105-2.274-.771-1.731-1.484-3.491-2.135-5.277-1.75.639-3.499,1.277-5.249,1.916-.696-1.907-1.327-3.841-1.892-5.799,1.79-.516,3.58-1.032,5.369-1.548-.211-.73-.404-1.467-.594-2.204-.428.161-.857.326-1.287.497.173-.069.347-.137.52-.205.159-.062.318-.124.477-.184.278-.105.555-.208.831-.309.135-.049.27-.1.404-.148.011-.004.023-.008.034-.012,2.097,7.391,8.822,25.843,26.419,40.33.284-.295.564-.592.84-.888-17.471-14.35-24.081-32.661-26.106-39.845.014-.005.029-.01.043-.015.412-.14.823-.274,1.233-.405.013-.004.026-.008.039-.012,2.183,7.515,8.829,25.212,25.66,39.328.136-.152.272-.304.407-.455-16.736-14.028-23.329-31.621-25.485-39.053.202-.063.403-.126.604-.186.145-.043.29-.085.434-.128.262-.077.524-.153.785-.226.155-.044.309-.086.463-.128.252-.069.505-.137.756-.203.155-.041.309-.081.464-.12.255-.065.51-.129.764-.191.146-.036.292-.072.437-.106.275-.065.548-.128.821-.19.123-.028.246-.057.368-.084.346-.076.69-.149,1.034-.22.049-.01.098-.021.147-.031.399-.081.797-.159,1.193-.233.075-.014.149-.027.223-.04.315-.058.629-.114.942-.167.122-.021.243-.04.365-.06.265-.044.53-.087.794-.128.135-.021.27-.041.404-.061.037-.005.073-.01.11-.016.024-.004.048-.007.073-.011.19-.028.38-.056.57-.082.134-.019.268-.037.402-.055.254-.034.507-.066.759-.097.125-.015.25-.031.375-.046.269-.032.536-.062.803-.09.106-.011.212-.023.317-.034.097-.01.193-.018.29-.028.016-.002.031-.003.047-.005.216-.021.432-.043.647-.063.039-.004.078-.008.117-.011.379-.034.756-.065,1.13-.093.02-.001.04-.003.059-.004.341-.025.68-.048,1.018-.068.094-.006.188-.01.282-.016.054-.003.107-.005.16-.008.01,0,.02-.001.03-.002.2-.011.4-.022.598-.031.11-.005.22-.01.33-.014.244-.01.488-.02.73-.028.114-.004.228-.007.342-.011.24-.007.479-.013.717-.018.108-.002.215-.004.322-.006.084-.001.167-.002.251-.003.003,0,.006,0,.01,0,.162-.002.325-.004.487-.005.091,0,.182-.002.272-.002.294,0,.585,0,.875.002.041,0,.082,0,.122,0,.199.002.39.009.587.013.363.006.724.013,1.08.023.107.003.219.003.326.007.064.002.127.005.191.007.256.009.51.019.762.031.086.004.171.008.256.013.227.011.453.023.677.036.095.005.189.011.284.017.216.013.431.027.644.042.091.006.182.012.272.019.221.016.44.033.657.05.078.006.156.012.234.019.252.021.502.043.749.066.038.004.076.007.113.01.073.007.141.015.214.022.418.041.828.084,1.231.129.088.01.181.018.268.028.046.005.091.011.137.016.224.026.446.053.665.081.073.009.144.019.217.028.192.025.382.05.57.076.078.011.156.022.234.032.179.025.356.05.532.076.078.011.156.023.234.035.177.027.352.053.525.081.069.011.138.021.206.032.081.013.159.026.239.039.004,0,.009.001.013.002.105.017.211.034.314.051.046.008.093.015.138.023.112.019.213.039.323.058.238.041.47.083.698.125.11.02.228.04.336.06.041.008.081.016.122.023.059.011.115.022.173.033.007.001.014.003.021.004.103.02.207.04.308.06.067.013.133.026.199.04.136.027.27.054.402.081.073.015.145.03.216.045.123.026.244.051.363.077.071.015.142.03.212.046.049.011.096.021.143.032.009.002.018.004.028.006.059.013.119.026.178.039.064.014.129.029.192.043.118.027.234.053.348.08.056.013.112.026.167.039.131.031.258.061.383.092.034.008.069.016.103.025.064.016.125.031.187.046.016.004.032.008.048.012.069.017.14.034.207.051.066.017.128.033.192.049.079.02.158.04.234.06.069.018.134.035.2.053.064.017.128.034.19.05.069.019.136.037.203.055.01.003.02.005.03.008.02.006.04.011.06.016.024.006.048.013.071.019.067.018.132.036.195.054.045.013.09.025.133.038.024.007.047.013.071.02.024.007.047.013.071.02.017.005.034.01.05.014.031.009.06.017.091.026.07.02.14.04.205.06h0c.018.005.032.01.049.015.037.011.07.021.105.031.09.027.174.052.252.076.03.009.062.019.09.028.088.027.166.052.237.074.035.011.064.02.095.03.041.013.078.025.112.036.039.013.071.023.1.033.026.009.049.016.067.023.037.013.061.021.061.021,0,0-.071.591-.264,1.65-.007.039-.015.08-.022.121-.02.111-.042.224-.065.345-.023.12-.047.245-.073.375-.01.051-.02.102-.031.154-1.003,4.965-3.973,16.255-11.789,28.037-.045.069-.088.137-.133.206Z"/><path class="cls-2" d="M77,65.821c-.277-.152-.842-.468-1.117-.627-2.397-1.033-4.739-2.188-6.999-3.495-1.955-.505-4.088.101-5.915.839-1.87,1.312-2.145,3.851-3.034,5.797-.291.089-.876.258-1.165.341-4.215-2.706-10.344-4.346-14.565-.771-1.798.807-2.242,2.962-2.758,4.66-5.989,1.575-9.675,9.099-6.585,14.611,1.113,2.444,4.46,3.265,6.694,1.888,2.829-1.595,3.596-5.005,4.949-7.713,1.408.359,2.869.646,4.309.263,2.651-.239,5.361-1.166,7.276-3.082,1.472-1.483,3.778-.712,5.634-1.224,3.072-1.231,5.537-3.499,7.448-6.162.657-.25,1.315-.499,1.977-.763,2.585-1.066,4.67-3.044,7.301-4.05-1.037-.242-2.065-.489-3.099-.716l-.351.203Z"/><path class="cls-3" d="M147.765,130.271c-3.572.494-7.536,1.917-9.306,5.316-1.027,1.873-.129,3.983.247,5.901-4.238,1.948-8.426,4.009-12.589,6.115-2.864,1.607-6.17,4.153-5.987,7.788.66,3.139,4.409,3.639,7.067,3.487,4.84-.267,8.734-3.666,11.452-7.414,5.219.315,10.472-3.543,11.441-8.678.982-2.398.827-5.01,1.129-7.531,2.009-3.762,5.111-6.914,6.812-10.857-3.138,2.425-6.458,4.648-10.265,5.873Z"/><path class="cls-4" d="M259.041,3.396h69.243c45.203,0,65.323,24.562,65.323,58.529,0,24.039-10.19,43.636-32.139,52.781l38.41,59.574h-50.168l-30.31-53.564h-18.029v53.564h-42.33V3.396ZM328.806,81.523c16.984,0,21.948-8.361,21.948-19.597s-4.964-19.335-21.948-19.335h-27.436v38.933h27.436Z"/><path class="cls-4" d="M404.313,88.839c0-51.213,37.626-88.839,90.93-88.839s90.929,37.626,90.929,88.839-37.626,88.839-90.929,88.839-90.93-37.626-90.93-88.839ZM543.32,88.839c0-28.742-19.074-49.646-48.078-49.646s-48.078,20.903-48.078,49.646,19.074,49.645,48.078,49.645,48.078-20.903,48.078-49.645Z"/><path class="cls-4" d="M604.717,3.396h42.33v69.765L696.691,3.396h52.258l-64.539,83.613,67.152,87.271h-53.565l-50.952-71.854v71.854h-42.33V3.396Z"/><path class="cls-4" d="M763.838,3.396h126.204v39.194h-83.874v27.958h68.72v33.968h-68.72v30.571h83.874v39.193h-126.204V3.396Z"/><path class="cls-4" d="M947.782,42.59h-46.51V3.396h135.61v39.194h-46.771v131.69h-42.329V42.59Z"/><path class="cls-6" d="M1053.602,3.396h81.262c33.445,0,50.168,18.813,50.168,44.942,0,16.723-7.578,29.787-20.643,36.842v.523c18.029,6.532,28.48,21.687,28.48,41.807,0,26.913-16.983,46.771-51.213,46.771h-88.055V3.396ZM1127.808,70.548c11.236,0,15.417-6.271,15.417-13.848,0-7.839-3.136-14.11-15.417-14.11h-31.877v27.958h31.877ZM1133.034,135.087c12.28,0,16.461-6.793,16.461-15.155s-5.487-15.416-16.461-15.416h-37.104v30.571h37.104Z"/><path class="cls-6" d="M1209.325,3.396h126.203v39.194h-83.874v27.958h68.72v33.968h-68.72v30.571h83.874v39.193h-126.203V3.396Z"/><path class="cls-6" d="M1393.269,42.59h-46.51V3.396h135.61v39.194h-46.771v131.69h-42.329V42.59Z"/><path class="cls-5" d="M259.041,3.396h69.243c45.203,0,65.323,24.562,65.323,58.529,0,24.039-10.19,43.636-32.139,52.781l38.41,59.574h-50.168l-30.31-53.564h-18.029v53.564h-42.33V3.396ZM328.806,81.523c16.984,0,21.948-8.361,21.948-19.597s-4.964-19.335-21.948-19.335h-27.436v38.933h27.436ZM404.313,88.839c0-51.213,37.626-88.839,90.93-88.839s90.929,37.626,90.929,88.839-37.626,88.839-90.929,88.839-90.93-37.626-90.93-88.839ZM543.32,88.839c0-28.742-19.074-49.646-48.078-49.646s-48.078,20.903-48.078,49.646,19.074,49.645,48.078,49.645,48.078-20.903,48.078-49.645ZM604.717,3.396h42.33v69.765L696.691,3.396h52.258l-64.539,83.613,67.152,87.271h-53.565l-50.952-71.854v71.854h-42.33V3.396ZM763.838,3.396h126.204v39.194h-83.874v27.958h68.72v33.968h-68.72v30.571h83.874v39.193h-126.204V3.396ZM947.782,42.59h-46.51V3.396h135.61v39.194h-46.771v131.69h-42.329V42.59ZM1053.602,3.396h81.262c33.445,0,50.168,18.813,50.168,44.942,0,16.723-7.578,29.787-20.643,36.842v.523c18.029,6.532,28.48,21.687,28.48,41.807,0,26.913-16.983,46.771-51.213,46.771h-88.055V3.396ZM1127.808,70.548c11.236,0,15.417-6.271,15.417-13.848,0-7.839-3.136-14.11-15.417-14.11h-31.877v27.958h31.877ZM1133.034,135.087c12.28,0,16.461-6.793,16.461-15.155s-5.487-15.416-16.461-15.416h-37.104v30.571h37.104ZM1209.325,3.396h126.203v39.194h-83.874v27.958h68.72v33.968h-68.72v30.571h83.874v39.193h-126.203V3.396ZM1393.269,42.59h-46.51V3.396h135.61v39.194h-46.771v131.69h-42.329V42.59Z"/></g></svg>